<svg width="657" height="635" viewBox="0 0 657 635" fill="none" xmlns="http://www.w3.org/2000/svg">
<path d="M271.487 112C285.069 112 296.123 122.93 296.277 136.512C296.407 148.093 321.291 161.452 309.711 161.675C309.489 161.679 309.252 161.682 309 161.682C298.102 161.682 296.584 171.311 296.374 173.78C296.342 174.161 296.342 174.542 296.345 174.925L297.478 346.713C297.493 348.947 297.334 351.187 297.611 353.404C298.419 359.877 303.288 373.404 330 372.225C332.398 372.119 334.311 372.083 335.792 372.108C364.53 372.599 296.541 404.837 296.598 433.578L296.967 619C296.984 627.827 289.209 635.057 280.39 634.67C274.159 634.397 266.451 634.032 257.107 633.37C239.302 632.109 225.874 617.02 225.839 599.171L225.012 171.832C225.012 171.794 225.012 171.761 225.011 171.722C224.989 170.944 224.465 161.682 212 161.682C210.837 161.682 209.985 161.63 209.399 161.537C198.374 159.784 224.991 147.426 224.963 136.263C224.928 122.873 235.773 112 249.162 112H271.487ZM373.159 112C386.878 112 398 123.122 398 136.841C398 150.56 386.878 161.682 373.159 161.682H155.841C142.122 161.682 131 150.56 131 136.841C131 123.122 142.122 112 155.841 112H373.159Z" fill="#2563EB"/>
<path fill-rule="evenodd" clip-rule="evenodd" d="M401.556 380.073C390.099 374.024 377.478 371 363.693 371L275.04 373.425H267.123C244.411 373.425 226 399.487 226 431.636V574.251C226 578.084 226 581.81 226 585.4C226 612.354 244.508 633.4 271.446 634.335C303.915 635.463 344.926 635.425 364.904 632.078C365.319 632.008 365.705 631.935 366.117 631.851C370.028 631.054 391.529 626.519 401.835 621.141C413.292 615.092 423.211 606.552 431.594 595.522C439.977 584.491 446.45 571.385 451.014 556.204C455.671 541.022 458 524.299 458 506.033V495.181C458 476.797 455.671 460.073 451.014 445.01C446.45 429.829 439.93 416.723 431.454 405.692C423.072 394.543 413.105 386.004 401.556 380.073ZM412 498.578C412 580.959 363 582.001 353 582.001C301.5 582.001 302.5 586.293 301.5 500.759C300.5 415.225 301.5 417.655 353 417.655C359.5 417.655 412 416.197 412 498.578Z" fill="#2563EB"/>
<path d="M633 535C633 573.976 601.002 606 561 606C520.998 606 489 573.976 489 535C489 496.024 520.998 464 561 464C601.002 464 633 496.024 633 535Z" stroke="#60A5FA" stroke-width="48"/>
<path d="M486 268C486 306.976 454.002 339 414 339C373.998 339 342 306.976 342 268C342 229.024 373.998 197 414 197C454.002 197 486 229.024 486 268Z" stroke="#3B82F6" stroke-width="48"/>
<path d="M304 32.5L106 602.5L32 413.5" stroke="#93C5FD" stroke-width="64" stroke-linecap="round" stroke-linejoin="round"/>
</svg>
